<?xml version="1.0" standalone="no"?>
<!DOCTYPE svg PUBLIC "-//W3C//DTD SVG 20010904//EN"
 "http://www.w3.org/TR/2001/REC-SVG-20010904/DTD/svg10.dtd">
<svg version="1.0" xmlns="http://www.w3.org/2000/svg"
 width="321.000000pt" height="292.000000pt" viewBox="0 0 321.000000 292.000000"
 preserveAspectRatio="xMidYMid meet">

<g transform="translate(0.000000,292.000000) scale(0.100000,-0.100000)"
fill="#000000" stroke="none">
<path d="M271 2868 c-55 -12 -121 -76 -139 -134 -9 -30 -12 -156 -12 -455 0
-379 2 -417 19 -454 21 -47 89 -111 128 -122 16 -5 617 -8 1338 -8 l1310 0 40
22 c51 27 89 69 104 112 7 23 11 168 11 457 0 374 -2 427 -17 458 -9 19 -20
33 -24 31 -4 -3 -9 5 -13 18 -7 28 -61 65 -106 73 -20 3 -30 2 -24 -3 6 -4 13
-15 16 -23 3 -9 17 -15 34 -15 20 0 28 -4 26 -14 -3 -12 0 -12 12 -1 14 11 20
7 17 -12 0 -4 10 -15 22 -25 30 -23 39 -48 27 -75 -7 -19 -9 -20 -9 -5 -1 13
-7 17 -23 15 -27 -4 -35 -25 -11 -30 16 -3 15 -6 -7 -28 l-25 -25 -3 43 c-2
28 -8 42 -18 42 -16 0 -19 -27 -3 -32 17 -6 1 -158 -17 -158 -10 0 -14 -13
-14 -40 0 -29 4 -40 15 -40 11 0 15 -11 15 -40 0 -29 -4 -40 -15 -40 -11 0
-15 -11 -15 -40 0 -22 5 -40 10 -40 6 0 10 -18 10 -40 0 -29 -4 -40 -15 -40
-11 0 -15 -11 -15 -40 0 -22 -4 -40 -10 -40 -6 0 -10 33 -10 80 l0 80 -80 0
-80 0 0 110 0 110 -80 0 -80 0 0 50 0 50 40 0 40 0 0 -40 0 -40 55 0 55 0 0
40 c0 29 -4 40 -15 40 -8 0 -15 7 -15 15 0 13 -20 15 -120 15 -100 0 -120 -2
-120 -15 0 -11 -11 -15 -39 -15 -37 0 -40 2 -43 33 l-3 32 -30 -32 c-25 -28
-36 -33 -77 -33 -36 0 -48 4 -48 15 0 13 -42 15 -320 15 -298 0 -320 -1 -321
-17 0 -12 -6 -6 -16 15 -9 17 -19 32 -23 32 -4 0 -14 -15 -23 -32 -14 -30 -16
-31 -16 -9 -1 17 -5 22 -17 17 -9 -3 -20 -6 -25 -6 -5 0 -9 -7 -9 -15 0 -8 -7
-15 -15 -15 -11 0 -15 11 -15 35 0 22 6 38 15 41 10 4 15 20 15 45 0 24 5 39
12 39 9 0 9 3 0 12 -7 7 -12 17 -12 22 0 6 5 4 10 -4 5 -8 10 -10 10 -4 0 6 7
11 15 11 8 0 15 -9 15 -19 0 -15 8 -18 46 -18 41 0 45 2 34 15 -7 9 -10 18 -6
22 3 3 6 0 6 -8 0 -11 2 -11 10 1 9 13 10 13 10 0 0 -13 1 -13 10 0 9 13 10
13 10 0 0 -13 1 -13 10 0 9 13 10 13 10 0 0 -13 1 -13 10 0 9 13 10 13 10 0 0
-13 1 -13 10 0 9 13 10 13 10 0 0 -13 1 -13 10 0 9 13 10 13 10 0 0 -13 1 -13
10 0 9 13 10 13 10 0 0 -13 1 -13 10 0 9 13 10 13 10 0 0 -13 1 -13 10 0 9 13
10 13 10 0 0 -13 1 -13 10 0 9 13 10 13 10 0 0 -13 1 -13 10 0 9 13 10 13 10
0 0 -13 1 -13 10 0 9 13 10 13 10 0 0 -13 1 -13 10 0 9 13 10 13 10 0 0 -13 1
-13 10 0 9 13 10 13 10 0 0 -13 1 -13 10 0 9 13 10 13 10 0 0 -13 1 -13 10 0
8 12 10 11 10 -7 0 -21 5 -23 47 -23 37 0 44 3 35 12 -7 7 -12 17 -12 23 0 5
5 3 10 -5 8 -12 10 -12 10 -1 0 8 3 11 7 8 3 -4 12 -2 19 4 17 14 29 -8 14
-26 -10 -13 -8 -15 14 -15 15 0 25 4 22 9 -4 5 2 8 11 6 10 -2 18 -4 18 -5 0
-1 30 -3 67 -4 37 -1 66 1 66 4 0 3 0 12 1 20 1 13 2 13 11 0 9 -13 10 -13 10
0 0 13 1 13 10 0 9 -13 10 -13 10 0 0 13 1 13 10 0 5 -8 10 -10 10 -4 0 6 16
9 37 8 56 -3 56 -3 44 -18 -9 -11 3 -14 72 -15 65 -2 87 2 97 14 11 13 7 15
-34 15 -25 0 -46 5 -46 10 0 6 28 10 63 10 34 0 87 3 117 7 l55 8 -80 12 -80
12 119 -2 c85 -2 121 -6 124 -15 4 -14 32 -16 32 -2 0 6 15 11 33 11 17 1 24
3 15 6 -10 2 -18 11 -18 19 0 12 -177 14 -1272 13 -784 -1 -1290 -5 -1317 -11z
m2664 -26 c-3 -3 -11 0 -18 7 -9 10 -8 11 6 5 10 -3 15 -9 12 -12z m-1875 -17
c0 -8 -4 -15 -10 -15 -5 0 -10 7 -10 15 0 8 5 15 10 15 6 0 10 -7 10 -15z
m-45 -4 c24 -9 -59 -21 -152 -21 -35 0 -63 -4 -63 -10 0 -16 -150 -13 -156 4
-3 8 -16 12 -32 9 -25 -3 -25 -3 -5 6 13 6 93 8 188 6 99 -2 165 0 165 6 0 11
27 11 55 0z m-761 -21 c28 0 29 0 11 -20 -21 -23 -44 -22 -63 3 -16 20 -6 45
11 28 6 -6 24 -11 41 -11z m142 -7 c-1 -16 8 -18 82 -15 54 2 82 -1 82 -8 0
-14 375 -6 393 8 7 5 21 6 32 1 19 -7 19 -8 -2 -8 -16 -1 -23 -7 -23 -21 0
-18 7 -20 80 -20 63 0 80 -3 80 -14 0 -12 -34 -15 -197 -18 -266 -4 -283 -2
-283 28 0 23 -3 24 -72 25 -75 2 -233 15 -210 17 8 1 10 7 6 15 -5 7 0 6 11
-3 11 -9 16 -10 11 -2 -4 6 -4 17 -1 22 9 15 13 12 11 -7z m147 10 c-13 -2
-33 -2 -45 0 -13 2 -3 4 22 4 25 0 35 -2 23 -4z m656 -7 c-2 -2 -21 -6 -42
-10 -27 -5 -37 -4 -32 3 3 6 22 11 42 11 20 0 34 -2 32 -4z m-562 -22 c-3 -3
-12 -4 -19 -1 -8 3 -5 6 6 6 11 1 17 -2 13 -5z m423 -4 c0 -5 -4 -10 -10 -10
-5 0 -10 5 -10 10 0 6 5 10 10 10 6 0 10 -4 10 -10z m380 -50 c0 -22 -4 -40
-10 -40 -5 0 -10 -18 -10 -40 0 -33 -3 -40 -20 -40 -17 0 -20 7 -20 40 0 22
-4 40 -10 40 -5 0 -10 -4 -10 -10 0 -5 -18 -10 -40 -10 -22 0 -40 5 -40 10 0
6 -5 10 -11 10 -14 0 -69 -55 -69 -69 0 -6 -13 -11 -30 -11 -28 0 -30 -2 -30
-39 0 -37 2 -40 33 -44 28 -3 26 -4 -10 -5 l-43 -2 0 85 0 85 40 0 40 0 0 40
0 40 120 0 120 0 0 -40z m1607 -82 c-3 -8 -6 -5 -6 6 -1 11 2 17 5 13 3 -3 4
-12 1 -19z m-2487 -28 c0 -5 -4 -10 -9 -10 -6 0 -13 5 -16 10 -3 6 1 10 9 10
9 0 16 -4 16 -10z m800 -20 c0 -5 -18 -10 -40 -10 -22 0 -40 5 -40 10 0 6 18
10 40 10 22 0 40 -4 40 -10z m240 -50 c0 -13 -7 -20 -20 -20 -19 0 -27 20 -13
33 13 14 33 6 33 -13z m-190 -60 c0 -22 -4 -40 -10 -40 -5 0 -10 18 -10 40 0
22 5 40 10 40 6 0 10 -18 10 -40z m110 0 l0 -40 -40 0 -40 0 0 -40 c0 -22 -4
-40 -10 -40 -5 0 -10 18 -10 40 0 22 5 40 10 40 6 0 10 18 10 40 l0 40 40 0
40 0 0 -40z m720 0 l0 -40 -40 0 c-22 0 -40 2 -40 5 0 9 64 75 73 75 4 0 7
-18 7 -40z m-1600 -60 l0 -80 -80 0 c-73 0 -80 2 -80 20 0 17 7 20 40 20 l40
0 0 60 0 60 40 0 40 0 0 -80z m560 50 c0 -5 -18 -10 -40 -10 -22 0 -40 5 -40
10 0 6 18 10 40 10 22 0 40 -4 40 -10z m-210 -34 c0 -2 -7 -9 -15 -16 -12 -10
-15 -10 -15 4 0 9 7 16 15 16 8 0 15 -2 15 -4z m210 -6 c0 -5 -18 -10 -40 -10
-22 0 -40 5 -40 10 0 6 18 10 40 10 22 0 40 -4 40 -10z m-119 -70 c21 0 39 -4
39 -10 0 -5 -18 -10 -40 -10 -22 0 -40 5 -40 10 0 6 -7 10 -16 10 -14 0 -15 2
-3 17 13 15 14 15 17 0 3 -12 14 -17 43 -17z m279 10 c0 -5 -18 -10 -40 -10
-22 0 -40 5 -40 10 0 6 18 10 40 10 22 0 40 -4 40 -10z m880 -20 c0 -5 -18
-10 -40 -10 -22 0 -40 5 -40 10 0 6 18 10 40 10 22 0 40 -4 40 -10z m735 -561
c-4 -6 0 -9 10 -7 10 2 20 -2 22 -9 6 -16 -66 -51 -119 -58 -31 -4 -37 -3 -22
4 11 5 28 21 37 35 10 14 26 26 37 26 10 0 22 5 25 10 3 6 8 10 11 10 3 0 2
-5 -1 -11z m-2749 -10 c3 -6 1 -16 -6 -22 -10 -9 -11 -9 -5 2 4 8 2 17 -6 22
-9 6 -10 9 -2 9 6 0 15 -5 19 -11z m67 -34 c5 -11 29 -15 99 -18 l93 -3 -100
-2 c-96 -2 -125 5 -125 30 0 14 28 9 33 -7z"/>
<path d="M200 2800 c0 -5 10 -15 23 -21 22 -12 22 -12 3 10 -21 23 -26 26 -26
11z"/>
<path d="M756 2741 c-18 -7 -18 -8 5 -14 35 -10 39 -9 39 8 0 16 -14 18 -44 6z"/>
<path d="M2940 1764 c-17 -10 -18 -13 -5 -8 11 3 25 7 32 7 7 0 10 4 7 9 -6
10 -4 10 -34 -8z"/>
<path d="M2880 2810 c0 -6 -37 -10 -90 -10 -59 0 -90 -4 -90 -11 0 -7 32 -10
102 -7 75 2 102 0 105 -9 3 -7 -2 -13 -11 -13 -9 0 -16 -7 -16 -15 0 -8 7 -15
15 -15 8 0 15 7 15 16 0 11 6 15 20 11 26 -7 26 10 1 18 -11 3 -23 15 -26 26
-7 20 -25 27 -25 9z"/>
<path d="M2965 2780 c-3 -5 -5 -10 -3 -11 33 -8 38 -7 27 7 -14 17 -16 17 -24
4z"/>
<path d="M1840 2695 c0 -11 11 -15 40 -15 29 0 40 4 40 15 0 11 -11 15 -40 15
-29 0 -40 -4 -40 -15z"/>
<path d="M2720 2695 c0 -8 7 -15 16 -15 14 0 14 3 4 15 -7 8 -14 15 -16 15 -2
0 -4 -7 -4 -15z"/>
</g>
</svg>
